<svg width="24" height="24" viewBox="0 0 24 24" fill="none" xmlns="http://www.w3.org/2000/svg">
<g opacity="0.8">
<path d="M20.952 9.46476L12.9992 1.51192C12.177 0.689735 10.8391 0.689688 10.0169 1.51192C9.27776 2.251 9.21411 3.3782 9.75992 4.18309L9.74885 4.23845C9.17548 7.10555 7.77959 9.71386 5.71199 11.7814L2.06423 15.4292C1.24007 16.2534 1.23993 17.5872 2.06423 18.4114L4.05238 20.3996C4.87649 21.2238 6.21046 21.2238 7.03466 20.3996L7.53172 19.9025L11.0111 23.3819C11.8352 24.2061 13.1691 24.2061 13.9933 23.3819C14.8155 22.5597 14.8155 21.2218 13.9933 20.3996L12.5021 18.9085L12.9992 18.4114C13.8234 17.5873 13.8235 16.2535 12.9992 15.4292L12.6614 15.0914C14.3231 13.928 16.2102 13.1181 18.2255 12.715L18.2816 12.7038C19.1044 13.2593 20.229 13.17 20.952 12.4469H20.9521C21.7741 11.6248 21.7741 10.287 20.952 9.46476ZM6.04058 19.4055C5.76589 19.6802 5.32114 19.6802 5.04646 19.4055L3.05831 17.4173C2.78357 17.1425 2.78357 16.698 3.05831 16.4233L6.5376 12.9439L9.51987 15.9262C9.17947 16.2666 6.38938 19.0567 6.04058 19.4055ZM12.9992 21.3937C13.2732 21.6677 13.2732 22.1137 12.9992 22.3878C12.7251 22.6618 12.2791 22.6618 12.0051 22.3878L8.52575 18.9084L9.51987 17.9143L12.9992 21.3937ZM10.5139 16.9203C10.7253 16.709 11.0416 16.3853 11.5408 15.9589L12.0051 16.4233C12.2798 16.698 12.2798 17.1425 12.0051 17.4173L11.508 17.9144L10.5139 16.9203ZM10.5438 14.962L7.50172 11.9199C9.13198 10.0375 10.2994 7.81538 10.9241 5.40132L17.0624 11.5397C14.6484 12.1642 12.4263 13.3317 10.5438 14.962ZM19.9578 11.4528C19.6831 11.7275 19.2384 11.7275 18.9637 11.4528L11.011 3.50007C10.7362 3.22529 10.7362 2.78073 11.011 2.506C11.2857 2.23126 11.7304 2.23126 12.0051 2.506L19.9578 10.4587C20.2318 10.7328 20.2318 11.1787 19.9578 11.4528Z" fill="#070F21"/>
<path d="M7.0346 15.429C6.76015 15.1545 6.31503 15.1545 6.04053 15.429L5.04645 16.4231C4.77195 16.6976 4.77195 17.1427 5.04645 17.4172C5.3209 17.6917 5.76607 17.6917 6.04053 17.4172L7.0346 16.4231C7.3091 16.1486 7.3091 15.7035 7.0346 15.429Z" fill="#070F21"/>
<path d="M16.2276 0C15.8394 0 15.5247 0.314718 15.5247 0.702936V2.10881C15.5247 2.49703 15.8394 2.81174 16.2276 2.81174C16.6158 2.81174 16.9306 2.49703 16.9306 2.10881V0.702936C16.9306 0.314718 16.6158 0 16.2276 0Z" fill="#070F21"/>
<path d="M21.8511 5.62329H20.4452C20.057 5.62329 19.7423 5.93801 19.7423 6.32623C19.7423 6.71445 20.057 7.02916 20.4452 7.02916H21.8511C22.2393 7.02916 22.554 6.71445 22.554 6.32623C22.554 5.93801 22.2392 5.62329 21.8511 5.62329Z" fill="#070F21"/>
<path d="M20.9423 1.61164C20.6678 1.33714 20.2227 1.33714 19.9482 1.61164L18.5423 3.01751C18.2678 3.29201 18.2678 3.73709 18.5423 4.01158C18.8168 4.28608 19.2619 4.28613 19.5364 4.01158L20.9423 2.60571C21.2168 2.33121 21.2168 1.88618 20.9423 1.61164Z" fill="#070F21"/>
</g>
</svg>
