<svg width="18" height="18" viewBox="0 0 18 18" fill="none" xmlns="http://www.w3.org/2000/svg">
<g opacity="0.8" clip-path="url(#clip0_589_4830)">
<path d="M17.8164 8.53695L13.6539 4.12693C13.398 3.85559 12.971 3.84321 12.6997 4.09926C12.4287 4.35509 12.4162 4.78235 12.6722 5.05347L16.3976 9L12.6722 12.947C12.4162 13.2181 12.4287 13.6452 12.6997 13.9012C12.8302 14.0243 12.9969 14.0852 13.163 14.0852C13.3423 14.0852 13.5214 14.0142 13.6539 13.8739L17.8164 9.46371C18.0619 9.20341 18.0619 8.79704 17.8164 8.53695Z" fill="#070F21"/>
<path d="M5.3285 12.9468L1.6034 9.00005L5.3285 5.05332C5.58434 4.78219 5.57196 4.3549 5.30084 4.0991C5.02992 3.84327 4.60242 3.85564 4.34662 4.12677L0.184097 8.53679C-0.0613656 8.79688 -0.0613656 9.20347 0.184097 9.46359L4.34683 13.8738C4.47958 14.0145 4.65846 14.0853 4.83779 14.0853C5.00384 14.0853 5.17058 14.0241 5.30084 13.901C5.57221 13.6452 5.58434 13.2179 5.3285 12.9468Z" fill="#070F21"/>
<path d="M10.0923 1.85195C9.724 1.79616 9.37929 2.04904 9.32304 2.41737L7.34303 15.3774C7.28678 15.746 7.5399 16.0905 7.90845 16.1467C7.94311 16.1519 7.97729 16.1544 8.01128 16.1544C8.33912 16.1544 8.62666 15.9152 8.67774 15.5813L10.6578 2.62124C10.714 2.25266 10.4609 1.9082 10.0923 1.85195Z" fill="#070F21"/>
</g>
<defs>
<clipPath id="clip0_589_4830">
<rect width="18" height="18" fill="white"/>
</clipPath>
</defs>
</svg>
