<svg width="14" height="14" viewBox="0 0 14 14" fill="none" xmlns="http://www.w3.org/2000/svg">
<g opacity="0.6" clip-path="url(#clip0_2_22467)">
<path d="M13.8794 2.83832L11.1344 0.093169C11.0572 0.015922 10.9524 -0.0274506 10.8432 -0.0274506H4.52941C3.84827 -0.0274506 3.29412 0.526702 3.29412 1.20784V6.63869C1.44376 6.84419 0 8.41732 0 10.3216C0 12.365 1.66246 14.0275 3.70588 14.0275H12.7647C13.4458 14.0275 14 13.4733 14 12.7922V3.12949C14 3.02027 13.9566 2.91557 13.8794 2.83832V2.83832ZM11.2549 1.3784L12.1495 2.27305L12.5941 2.71765H11.2549V1.3784ZM0.823529 10.3216C0.823529 8.73224 2.11655 7.43922 3.70588 7.43922C5.29521 7.43922 6.58824 8.73224 6.58824 10.3216C6.58824 11.9109 5.29521 13.2039 3.70588 13.2039C2.11655 13.2039 0.823529 11.9109 0.823529 10.3216ZM12.7647 13.2039H6.03233C6.77249 12.6054 7.2783 11.7282 7.38879 10.7333H11.6667C11.8941 10.7333 12.0784 10.549 12.0784 10.3216C12.0784 10.0942 11.8941 9.9098 11.6667 9.9098H7.38876C7.32162 9.30533 7.10865 8.74426 6.78572 8.26275H11.6667C11.8941 8.26275 12.0784 8.07838 12.0784 7.85098C12.0784 7.62358 11.8941 7.43922 11.6667 7.43922H6.03233C5.49645 7.00587 4.83791 6.71868 4.11765 6.63869V1.20784C4.11765 0.980797 4.30236 0.796079 4.52941 0.796079H10.4314V3.12941C10.4314 3.35682 10.6157 3.54118 10.8431 3.54118H13.1765V12.7922C13.1765 13.0192 12.9918 13.2039 12.7647 13.2039V13.2039Z" fill="#070F21"/>
<path d="M11.6667 4.96863H5.62746C5.40006 4.96863 5.2157 5.15299 5.2157 5.38039C5.2157 5.6078 5.40006 5.79216 5.62746 5.79216H11.6667C11.8941 5.79216 12.0784 5.6078 12.0784 5.38039C12.0784 5.15299 11.8941 4.96863 11.6667 4.96863Z" fill="#070F21"/>
<path d="M5.34213 9.28924C5.18135 9.12846 4.92062 9.12846 4.75981 9.28924L3.12941 10.9196L2.59703 10.3873C2.43625 10.2265 2.17552 10.2265 2.01471 10.3873C1.8539 10.548 1.8539 10.8088 2.01471 10.9696L2.83824 11.7931C2.91864 11.8735 3.02403 11.9137 3.12941 11.9137C3.2348 11.9137 3.34018 11.8735 3.42056 11.7931L5.34213 9.87153C5.50293 9.71075 5.50293 9.45002 5.34213 9.28924V9.28924Z" fill="#070F21"/>
</g>
<defs>
<clipPath id="clip0_2_22467">
<rect width="14" height="14" fill="white"/>
</clipPath>
</defs>
</svg>
