<svg width="14" height="14" viewBox="0 0 14 14" fill="none" xmlns="http://www.w3.org/2000/svg">
<g opacity="0.6">
<path fill-rule="evenodd" clip-rule="evenodd" d="M4.31639 3.73334H4.25975C3.77191 3.73327 3.45974 3.73322 3.19032 3.78467C2.0887 3.99503 1.21189 4.82583 0.987602 5.90833C0.932898 6.17233 0.932959 6.47732 0.933052 6.9411L0.933059 7.00001L0.933052 7.05892C0.932959 7.5227 0.932898 7.82769 0.987602 8.09169C1.21189 9.1742 2.0887 10.005 3.19032 10.2153C3.45975 10.2668 3.77192 10.2668 4.25976 10.2667H4.31639H5.13306C5.39079 10.2667 5.59973 10.0578 5.59973 9.8C5.59973 9.54231 5.39079 9.33333 5.13306 9.33333H4.31639C3.75278 9.33333 3.53646 9.33125 3.36538 9.29859C2.61577 9.15544 2.04546 8.59701 1.90152 7.90233C1.86884 7.7446 1.86639 7.54368 1.86639 7.00001C1.86639 6.45635 1.86884 6.25543 1.90152 6.09769C2.04546 5.40302 2.61577 4.84458 3.36538 4.70143C3.53646 4.66877 3.75278 4.66668 4.31639 4.66668H5.13306C5.39079 4.66668 5.59973 4.45774 5.59973 4.20001C5.59973 3.94228 5.39079 3.73334 5.13306 3.73334H4.31639ZM9.68305 4.66668C10.2467 4.66668 10.463 4.66877 10.6341 4.70143C11.3837 4.84458 11.954 5.40302 12.098 6.09769C12.1306 6.25543 12.133 6.45635 12.133 7.00001C12.133 7.54368 12.1306 7.7446 12.098 7.90233C11.954 8.59701 11.3837 9.15544 10.6341 9.29859C10.463 9.33125 10.2467 9.33333 9.68305 9.33333H8.86639C8.60866 9.33333 8.39973 9.54231 8.39973 9.8C8.39973 10.0578 8.60866 10.2667 8.86639 10.2667H9.68305H9.7397C10.2276 10.2668 10.5397 10.2668 10.8091 10.2153C11.9107 10.005 12.7876 9.1742 13.0119 8.09169C13.0666 7.82769 13.0665 7.52271 13.0664 7.05893V7.00001V6.94109C13.0665 6.47732 13.0666 6.17233 13.0119 5.90833C12.7876 4.82583 11.9107 3.99503 10.8091 3.78467C10.5397 3.73322 10.2276 3.73327 9.7397 3.73334H9.68305H8.86639C8.60866 3.73334 8.39973 3.94228 8.39973 4.20001C8.39973 4.45774 8.60866 4.66668 8.86639 4.66668H9.68305ZM4.66702 6.53333C4.40929 6.53333 4.20035 6.74227 4.20035 7C4.20035 7.25773 4.40929 7.46667 4.66702 7.46667H9.3337C9.5914 7.46667 9.80037 7.25773 9.80037 7C9.80037 6.74227 9.5914 6.53333 9.3337 6.53333H4.66702Z" fill="#070F21"/>
</g>
</svg>
