<svg width="20" height="20" viewBox="0 0 20 20" fill="none" xmlns="http://www.w3.org/2000/svg">
<path d="M8.1692 1.6665C8.01118 1.66638 7.85956 1.72896 7.74763 1.8405L1.84155 7.74657C1.78608 7.80198 1.74208 7.86777 1.71206 7.94019C1.68204 8.01262 1.66658 8.09025 1.66658 8.16864C1.66658 8.24704 1.68204 8.32467 1.71206 8.3971C1.74208 8.46952 1.78608 8.53531 1.84155 8.59072C2.41426 9.16343 3.12021 9.29169 3.63425 9.29169C3.84604 9.29169 4.03396 9.27081 4.1831 9.24595L7.92163 12.9845C7.82419 13.3822 7.76055 13.7859 7.73172 14.1935C7.67703 15.0307 7.7695 16.206 8.59078 17.0272C8.70264 17.139 8.85427 17.2017 9.01236 17.2017C9.17045 17.2017 9.32208 17.139 9.43394 17.0272L12.8096 13.6516L16.6067 17.4498C16.8394 17.6825 18.0604 18.5256 18.2931 18.293C18.5257 18.0603 17.6826 16.8373 17.4499 16.6057L13.6537 12.8095L17.0273 9.43387C17.139 9.32202 17.2018 9.17039 17.2018 9.0123C17.2018 8.8542 17.139 8.70258 17.0273 8.59072C16.207 7.76944 15.0318 7.67597 14.1936 7.73166C13.7859 7.75949 13.3813 7.82412 12.9855 7.92256L9.24602 4.18404C9.2772 4.00241 9.29317 3.81849 9.29375 3.6342C9.29375 3.12115 9.16449 2.41421 8.59078 1.8405C8.47885 1.72896 8.32723 1.66638 8.1692 1.6665ZM8.02404 4.18603V4.18404V4.18603ZM8.02404 4.18404V4.18603C7.98953 4.29095 7.98483 4.4034 8.01046 4.51083C8.03609 4.61827 8.09105 4.71648 8.1692 4.79453L12.387 9.0113C12.4654 9.08948 12.5641 9.14428 12.6719 9.16957C12.7797 9.19486 12.8925 9.18963 12.9975 9.15448H12.9995L13.0164 9.1505C13.4257 9.02878 13.8471 8.9521 14.2731 8.92182C14.7763 8.88801 15.2704 8.93077 15.6751 9.10079L9.09986 15.673C8.93182 15.2674 8.88907 14.7742 8.92288 14.2711C8.95321 13.8448 9.0299 13.423 9.15156 13.0133L9.15653 12.9984V12.9964C9.1918 12.8914 9.19709 12.7786 9.17179 12.6708C9.1465 12.5629 9.09163 12.4643 9.01336 12.3859L4.79459 8.16815C4.71329 8.08629 4.61001 8.02977 4.49724 8.00541C4.38448 7.98106 4.26707 7.98993 4.15924 8.03094L4.0449 8.05679C3.94149 8.07667 3.79632 8.09755 3.63425 8.09755C3.49804 8.09755 3.35983 8.08463 3.2256 8.04983L8.05188 3.22455C8.08487 3.35856 8.10091 3.49619 8.0996 3.6342C8.09861 3.81914 8.07375 4.00407 8.02503 4.18304L8.02404 4.18404Z" fill="#FF9900"/>
</svg>
