<svg width="16" height="16" viewBox="0 0 16 16" fill="none" xmlns="http://www.w3.org/2000/svg">
<g opacity="0.7" clip-path="url(#clip0_2_1054)">
<path d="M12.7061 0.666504H2.3855C1.43778 0.666504 0.666748 1.43754 0.666748 2.38525V13.6144C0.666748 14.5621 1.43778 15.3332 2.3855 15.3332H13.6147C14.5624 15.3332 15.3334 14.5621 15.3334 13.6144V3.29379L12.7061 0.666504ZM5.16414 1.81234H8.573V3.98942H9.71883V1.81234H10.8647V4.56234C10.8647 4.87824 10.6077 5.13525 10.2917 5.13525H5.73706C5.42115 5.13525 5.16414 4.87824 5.16414 4.56234V1.81234ZM12.0105 14.1873H4.01831V9.81234C4.01831 9.49643 4.27532 9.23942 4.59123 9.23942H11.4376C11.7535 9.23942 12.0105 9.49643 12.0105 9.81234V14.1873ZM14.1876 13.6144C14.1876 13.9303 13.9306 14.1873 13.6147 14.1873H13.1563V9.81234C13.1563 8.86462 12.3853 8.09359 11.4376 8.09359H4.59123C3.64351 8.09359 2.87248 8.86462 2.87248 9.81234V14.1873H2.3855C2.06959 14.1873 1.81258 13.9303 1.81258 13.6144V2.38525C1.81258 2.06935 2.06959 1.81234 2.3855 1.81234H4.01831V4.56234C4.01831 5.51006 4.78934 6.28109 5.73706 6.28109H10.2917C11.2395 6.28109 12.0105 5.51006 12.0105 4.56234V1.81234H12.2315L14.1876 3.76839V13.6144Z" fill="#070F21"/>
</g>
<defs>
<clipPath id="clip0_2_1054">
<rect width="16" height="16" fill="white"/>
</clipPath>
</defs>
</svg>
