<svg width="16" height="16" viewBox="0 0 16 16" fill="none" xmlns="http://www.w3.org/2000/svg">
<path d="M3.83455 11.6299L4.88892 10.5733L4.88898 10.5732C4.9918 10.4705 5.1312 10.4129 5.27652 10.413C5.42183 10.413 5.56117 10.4708 5.66386 10.5737C5.76656 10.6765 5.8242 10.8159 5.82412 10.9612C5.82403 11.1065 5.76622 11.2459 5.66341 11.3485M3.83455 11.6299L5.62807 11.3132M3.83455 11.6299V3.00321C3.83455 2.85805 3.77688 2.71882 3.67423 2.61618C3.57158 2.51353 3.43236 2.45586 3.28719 2.45586C3.14203 2.45586 3.0028 2.51353 2.90016 2.61618C2.79751 2.71882 2.73984 2.85805 2.73984 3.00321V11.6292L1.68544 10.5741L1.68542 10.5741C1.63452 10.5232 1.57408 10.4828 1.50757 10.4552C1.44106 10.4277 1.36977 10.4135 1.29778 10.4135C1.22578 10.4135 1.1545 10.4277 1.08798 10.4552C1.02147 10.4828 0.961036 10.5232 0.910129 10.5741C0.859223 10.625 0.818841 10.6854 0.791291 10.7519C0.76374 10.8184 0.749561 10.8897 0.749561 10.9617C0.749561 11.0337 0.76374 11.105 0.791291 11.1715C0.818841 11.238 0.859223 11.2984 0.910129 11.3494L0.910144 11.3494L2.89956 13.3371L2.8995 13.3372L2.90168 13.3391L2.90829 13.345L3.83455 11.6299ZM5.66341 11.3485L5.62807 11.3132M5.66341 11.3485L5.66343 11.3485L5.62807 11.3132M5.66341 11.3485L3.67419 13.3378L3.63866 13.3026M5.62807 11.3132L3.63866 13.3026M3.63866 13.3026L3.67401 13.3379L3.67406 13.3379L3.63866 13.3026ZM7.37634 3.61088C7.27369 3.71353 7.21602 3.85275 7.21602 3.99792C7.21602 4.14309 7.27369 4.28231 7.37634 4.38496C7.47899 4.48761 7.61821 4.54528 7.76338 4.54528H14.7263C14.8715 4.54528 15.0107 4.48761 15.1134 4.38496C15.216 4.28231 15.2737 4.14309 15.2737 3.99792C15.2737 3.85275 15.216 3.71353 15.1134 3.61088C15.0107 3.50823 14.8715 3.45057 14.7263 3.45057H7.76338C7.61821 3.45057 7.47899 3.50823 7.37634 3.61088ZM7.76338 6.43469C7.61821 6.43469 7.47899 6.49236 7.37634 6.59501C7.27369 6.69766 7.21602 6.83688 7.21602 6.98205C7.21602 7.12721 7.27369 7.26643 7.37634 7.36908C7.47899 7.47173 7.61821 7.5294 7.76338 7.5294H12.7369C12.8821 7.5294 13.0213 7.47173 13.124 7.36908C13.2266 7.26643 13.2843 7.12721 13.2843 6.98205C13.2843 6.83688 13.2266 6.69766 13.124 6.59501C13.0213 6.49236 12.8821 6.43469 12.7369 6.43469H7.76338ZM7.76338 9.41882C7.61821 9.41882 7.47899 9.47648 7.37634 9.57913C7.27369 9.68178 7.21602 9.821 7.21602 9.96617C7.21602 10.1113 7.27369 10.2506 7.37634 10.3532C7.47899 10.4559 7.61821 10.5135 7.76338 10.5135H10.7475C10.8927 10.5135 11.0319 10.4559 11.1345 10.3532C11.2372 10.2506 11.2949 10.1113 11.2949 9.96617C11.2949 9.821 11.2372 9.68178 11.1345 9.57913C11.0319 9.47648 10.8927 9.41882 10.7475 9.41882H7.76338ZM7.76338 12.4029C7.6915 12.4029 7.62032 12.4171 7.55392 12.4446C7.48751 12.4721 7.42717 12.5124 7.37634 12.5633C7.32551 12.6141 7.2852 12.6744 7.25769 12.7408C7.23018 12.8072 7.21602 12.8784 7.21602 12.9503C7.21602 13.0222 7.23018 13.0933 7.25769 13.1598C7.2852 13.2262 7.32551 13.2865 7.37634 13.3373C7.42717 13.3882 7.48751 13.4285 7.55392 13.456C7.62032 13.4835 7.6915 13.4976 7.76338 13.4976H8.75809C8.82996 13.4976 8.90114 13.4835 8.96755 13.456C9.03396 13.4285 9.0943 13.3882 9.14512 13.3373C9.19595 13.2865 9.23627 13.2262 9.26378 13.1598C9.29128 13.0933 9.30544 13.0222 9.30544 12.9503C9.30544 12.8784 9.29128 12.8072 9.26378 12.7408C9.23627 12.6744 9.19595 12.6141 9.14512 12.5633C9.0943 12.5124 9.03396 12.4721 8.96755 12.4446C8.90114 12.4171 8.82997 12.4029 8.75809 12.4029H7.76338Z" fill="#070F21" stroke="#070F21" stroke-width="0.1"/>
</svg>
