<svg width="24" height="24" viewBox="0 0 24 24" fill="none" xmlns="http://www.w3.org/2000/svg">
<g opacity="0.8" clip-path="url(#clip0_581_2853)">
<path d="M10.5031 5.84434C8.2376 6.36667 6.41688 8.16339 5.86465 10.4217C5.32216 12.64 5.95488 14.9044 7.55711 16.4788C8.1461 17.0576 8.4844 17.9212 8.4844 18.8479V20.2803C8.48449 22.4119 10.0425 24.0001 11.9996 24.0001C13.9381 24.0001 15.5148 22.423 15.5148 20.4845L15.5148 18.8499C15.5148 17.9338 15.8699 17.053 16.4882 16.433C17.6745 15.2437 18.3278 13.6693 18.3278 12.0001C18.3278 8.00865 14.6347 4.89189 10.5031 5.84434ZM11.9996 22.5938C10.7971 22.5938 9.89027 21.5992 9.89022 20.2803V19.7344H14.109V20.4844C14.109 21.6475 13.1627 22.5938 11.9996 22.5938ZM15.4926 15.44C14.733 16.2016 14.2536 17.2328 14.1371 18.3282H9.86365C9.75138 17.2232 9.28404 16.2042 8.5428 15.4758C7.27905 14.234 6.80079 12.5136 7.23063 10.7557C7.65785 9.00868 9.0664 7.61875 10.8191 7.21468C14.0445 6.47101 16.9215 8.87697 16.9215 12.0001C16.9215 13.2944 16.4141 14.5161 15.4926 15.44Z" fill="#070F21"/>
<path d="M11.2969 0.703125V2.15625C11.2969 2.54456 11.6117 2.85938 12 2.85938C12.3883 2.85938 12.7031 2.54456 12.7031 2.15625V0.703125C12.7031 0.314812 12.3883 0 12 0C11.6117 0 11.2969 0.314812 11.2969 0.703125Z" fill="#070F21"/>
<path d="M2.85938 12C2.85938 11.6117 2.54456 11.2969 2.15625 11.2969H0.703125C0.314812 11.2969 0 11.6117 0 12C0 12.3883 0.314812 12.7031 0.703125 12.7031H2.15625C2.54456 12.7031 2.85938 12.3883 2.85938 12Z" fill="#070F21"/>
<path d="M23.2969 11.2969H21.8438C21.4554 11.2969 21.1406 11.6117 21.1406 12C21.1406 12.3883 21.4554 12.7031 21.8438 12.7031H23.2969C23.6852 12.7031 24 12.3883 24 12C24 11.6117 23.6852 11.2969 23.2969 11.2969Z" fill="#070F21"/>
<path d="M3.1234 16.3131L1.90558 17.0162C1.56926 17.2104 1.45404 17.6404 1.64824 17.9767C1.84301 18.314 2.27337 18.4276 2.60871 18.234L3.82652 17.5309C4.16285 17.3367 4.27807 16.9067 4.08387 16.5704C3.88966 16.2341 3.45968 16.1189 3.1234 16.3131Z" fill="#070F21"/>
<path d="M21.3906 5.7662L20.1728 6.46933C19.8365 6.66348 19.7213 7.09351 19.9155 7.4298C20.1102 7.76715 20.5406 7.88073 20.8759 7.68714L22.0937 6.98401C22.4301 6.78986 22.5453 6.35983 22.3511 6.02354C22.1569 5.68722 21.7268 5.57205 21.3906 5.7662Z" fill="#070F21"/>
<path d="M17.0162 1.90567L16.3131 3.12353C16.1189 3.45981 16.2341 3.88984 16.5704 4.08399C16.9053 4.27735 17.3359 4.16439 17.5309 3.82665L18.234 2.60879C18.4282 2.27251 18.313 1.84248 17.9767 1.64832C17.6403 1.45407 17.2104 1.56934 17.0162 1.90567Z" fill="#070F21"/>
<path d="M6.46935 3.82661C6.66411 4.16397 7.09447 4.27755 7.42982 4.08395C7.76614 3.8898 7.88136 3.45977 7.68716 3.12348L6.98403 1.90562C6.78988 1.5693 6.35985 1.45413 6.02357 1.64828C5.68724 1.84244 5.57202 2.27247 5.76622 2.60875L6.46935 3.82661Z" fill="#070F21"/>
<path d="M22.0937 17.016L20.8759 16.3129C20.5395 16.1186 20.1096 16.2339 19.9155 16.5702C19.7213 16.9065 19.8365 17.3365 20.1728 17.5307L21.3906 18.2338C21.7254 18.4272 22.1561 18.3142 22.3511 17.9765C22.5453 17.6402 22.4301 17.2102 22.0937 17.016Z" fill="#070F21"/>
<path d="M3.82652 6.46914L2.60871 5.76602C2.27238 5.57172 1.8424 5.68704 1.64824 6.02336C1.45404 6.35964 1.56926 6.78968 1.90558 6.98383L3.1234 7.68696C3.45823 7.88032 3.88887 7.76735 4.08387 7.42961C4.27807 7.09333 4.16285 6.6633 3.82652 6.46914Z" fill="#070F21"/>
<path d="M12 9.1875C10.8369 9.1875 9.89062 10.1338 9.89062 11.2969C9.89062 11.6852 10.2054 12 10.5938 12C10.9821 12 11.2969 11.6852 11.2969 11.2969C11.2969 10.9092 11.6123 10.5938 12 10.5938C12.3877 10.5938 12.7031 10.9092 12.7031 11.2969C12.7031 11.5868 12.5292 11.8433 12.2599 11.9506C11.6749 12.1837 11.2969 12.7412 11.2969 13.3709V13.4062C11.2969 13.7946 11.6117 14.1094 12 14.1094C12.3883 14.1094 12.7031 13.7946 12.7031 13.4062V13.3709C12.7031 13.3212 12.7342 13.2754 12.7804 13.257C13.5877 12.9354 14.1094 12.166 14.1094 11.2969C14.1094 10.1338 13.1631 9.1875 12 9.1875Z" fill="#070F21"/>
<path d="M12 16.9219C12.3883 16.9219 12.7031 16.6071 12.7031 16.2188C12.7031 15.8304 12.3883 15.5156 12 15.5156C11.6117 15.5156 11.2969 15.8304 11.2969 16.2188C11.2969 16.6071 11.6117 16.9219 12 16.9219Z" fill="#070F21"/>
</g>
<defs>
<clipPath id="clip0_581_2853">
<rect width="24" height="24" fill="white"/>
</clipPath>
</defs>
</svg>
